<svg width="18" height="18" viewBox="0 0 18 18" fill="none" xmlns="http://www.w3.org/2000/svg">
<path fill-rule="evenodd" clip-rule="evenodd" d="M13.5856 11.9189C14.4088 10.7629 14.8929 9.34873 14.8929 7.82147C14.8929 3.916 11.7269 0.75 7.82147 0.75C3.916 0.75 0.75 3.916 0.75 7.82147C0.75 11.7269 3.916 14.8929 7.82147 14.8929C9.34869 14.8929 10.7628 14.4088 11.9188 13.5856L15.238 16.9048C15.6982 17.3651 16.4445 17.3651 16.9047 16.9048C17.365 16.4445 17.365 15.6983 16.9047 15.238L13.5856 11.9189ZM12.7171 7.82147C12.7171 10.5252 10.5252 12.7171 7.82147 12.7171C5.11769 12.7171 2.92584 10.5252 2.92584 7.82147C2.92584 5.11769 5.11769 2.92584 7.82147 2.92584C10.5252 2.92584 12.7171 5.11769 12.7171 7.82147Z" fill="#7986A3"/>
</svg>
